#!OML:ASF H:\Pregnant\Project 1\Capture day 1\Session 1\femalepreg.ASF
:FULLY-SPECIFIED
:DEGREES
773
root 5.92716 15.5588 15.4289 -344.415 -26.9378 -2.83849
lowerback -10.3652 0.554038 7.98897
upperback -7.88767 0.0311301 4.34092
thorax -2.47826 -0.264337 0.061269
lowerneck -22.097 -7.55042 -5.04386
upperneck 24.4102 -9.64743 2.10499
head 12.0447 -4.5409 -0.0180647
rclavicle -1.15295e-014 0
rhumerus -31.1664 -2.10343 -80.5302
rradius 31.5052
rwrist -3.83797
rhand -9.09729 -13.5633
rfingers 7.12502
rthumb 16.8528 -42.852
lclavicle -1.15295e-014 0
lhumerus -50.1549 -1.24135 85.997
lradius 29.1114
lwrist 34.5748
lhand -17.4082 0.536758
lfingers 7.12502
lthumb 8.8414 30.3315
rfemur -33.0163 19.5388 21.2973
rtibia 36.5292
rfoot -14.2232 -4.87279
rtoes -8.76529
lfemur -28.285 -9.39862 -17.3063
ltibia 55.1184
lfoot 13.0817 -21.8642
ltoes 15.9471
774
root 5.90756 15.5562 15.4449 -344.393 -26.899 -2.99632
lowerback -10.1428 0.506325 8.14662
upperback -7.79686 -0.0229575 4.47938
thorax -2.50903 -0.293151 0.113897
lowerneck -22.1036 -7.56341 -5.02024
upperneck 24.2156 -9.67759 2.16244
head 11.9735 -4.54572 -0.00209025
rclavicle 2.34566e-014 -3.49861e-014
rhumerus -30.9473 -2.12455 -80.3876
rradius 30.8873
rwrist -3.50267
rhand -8.81246 -13.6595
rfingers 7.12502
rthumb 17.127 -42.9246
lclavicle 2.34566e-014 -3.49861e-014
lhumerus -49.5964 -1.58869 86.1448
lradius 29.9088
lwrist 34.7049
lhand -17.8348 0.446882
lfingers 7.12502
lthumb 8.42973 30.2586
rfemur -32.7752 19.5313 21.5538
rtibia 36.3812
rfoot -14.2279 -4.85596
rtoes -8.75071
lfemur -29.2044 -9.19235 -16.9854
ltibia 56.1274
lfoot 12.4843 -21.6198
ltoes 12.6773
775
root 5.8882 15.5529 15.4607 -344.377 -26.8566 -3.15195
lowerback -9.92577 0.452856 8.28689
upperback -7.69871 -0.0838568 4.61671
thorax -2.52935 -0.324175 0.174608
lowerneck -22.1078 -7.57662 -5.00245
upperneck 24.0219 -9.7069 2.22307
head 11.9029 -4.55041 0.0161181
rclavicle 1.55052e-014 4.29375e-014
rhumerus -30.7144 -2.17125 -80.2155
rradius 30.2322
rwrist -3.11057
rhand -8.60299 -13.7664
rfingers 7.12502
rthumb 17.3286 -43.0139
lclavicle 1.55052e-014 4.29375e-014
lhumerus -49.0279 -1.89786 86.2444
lradius 30.7159
lwrist 34.9501
lhand -18.3882 0.377375
lfingers 7.12502
lthumb 7.89563 30.2099
rfemur -32.5407 19.5355 21.8054
rtibia 36.2508
rfoot -14.2341 -4.85661
rtoes -8.7331
lfemur -30.0993 -8.9999 -16.6944
ltibia 57.0708
lfoot 11.4552 -21.4411
ltoes 9.24421
776
root 5.86905 15.5492 15.4765 -344.364 -26.81 -3.30037
lowerback -9.71966 0.394547 8.41038
upperback -7.59499 -0.151168 4.74863
thorax -2.53796 -0.357339 0.238648
lowerneck -22.1102 -7.5896 -4.98671
upperneck 23.8311 -9.73537 2.28407
head 11.8335 -4.55498 0.0348665
rclavicle 7.4743e-014 -2.06736e-014
rhumerus -30.475 -2.25483 -80.0155
rradius 29.5552
rwrist -2.65857
rhand -8.47437 -13.8847
rfingers 7.12502
rthumb 17.4524 -43.1213
lclavicle 7.4743e-014 -2.06736e-014
lhumerus -48.4526 -2.1724 86.2961
lradius 31.5281
lwrist 35.2954
lhand -19.048 0.297775
lfingers 7.12502
lthumb 7.25879 30.1533
rfemur -32.317 19.5459 22.0473
rtibia 36.1405
rfoot -14.246 -4.87242
rtoes -8.71184
lfemur -30.9731 -8.81549 -16.4403
ltibia 57.9383
lfoot 10.0556 -21.2717
ltoes 5.71584
777
root 5.85004 15.5452 15.4925 -344.352 -26.7581 -3.43748
lowerback -9.52957 0.332352 8.51769
upperback -7.48845 -0.224314 4.8714
thorax -2.53492 -0.392537 0.301802
lowerneck -22.1125 -7.60234 -4.96963
upperneck 23.6475 -9.7635 2.34235
head 11.7668 -4.55968 0.0522712
rclavicle -3.4191e-014 4.29375e-014
rhumerus -30.2372 -2.38525 -79.789
rradius 28.8698
rwrist -2.14728
rhand -8.43074 -14.0133
rfingers 7.12502
rthumb 17.4943 -43.2461
lclavicle -3.4191e-014 4.29375e-014
lhumerus -47.8748 -2.41695 86.3013
lradius 32.3418
lwrist 35.7287
lhand -19.7948 0.17212
lfingers 7.12502
lthumb 6.53794 30.0512
rfemur -32.1085 19.5569 22.2755
rtibia 36.0527
rfoot -14.2679 -4.90076
rtoes -8.6868
lfemur -31.8285 -8.63558 -16.2256
ltibia 58.7157
lfoot 8.35596 -21.038
ltoes 2.07615
778
root 5.83109 15.5412 15.5089 -344.339 -26.7005 -3.55956
lowerback -9.36031 0.267144 8.60924
upperback -7.38117 -0.302815 4.98119
thorax -2.51972 -0.429669 0.359828
lowerneck -22.1177 -7.61549 -4.94744
upperneck 23.4747 -9.79306 2.39615
head 11.7046 -4.5651 0.0666139
rclavicle 7.35503e-015 1.27222e-014
rhumerus -30.0072 -2.57061 -79.5391
rradius 28.1892
rwrist -1.58191
rhand -8.47383 -14.1545
rfingers 7.12502
rthumb 17.4529 -43.391
lclavicle 7.35503e-015 1.27222e-014
lhumerus -47.2979 -2.63551 86.261
lradius 33.155
lwrist 36.2382
lhand -20.6132 -0.0393517
lfingers 7.12502
lthumb 5.74777 29.8627
rfemur -31.9194 19.5635 22.4866
rtibia 35.9896
rfoot -14.3033 -4.93915
rtoes -8.65855
lfemur -32.6657 -8.46096 -16.0503
ltibia 59.3866
lfoot 6.42844 -20.6641
ltoes -1.71889
